<?xml version="1.0" encoding="UTF-8" standalone="no"?>
<!-- Created with Inkscape (http://www.inkscape.org/) -->

<svg
   xmlns:dc="http://purl.org/dc/elements/1.1/"
   xmlns:cc="http://creativecommons.org/ns#"
   xmlns:rdf="http://www.w3.org/1999/02/22-rdf-syntax-ns#"
   xmlns:svg="http://www.w3.org/2000/svg"
   xmlns="http://www.w3.org/2000/svg"
   version="1.1"
   width="1506.6211"
   height="1297.77"
   id="svg2985">
  <title
     id="title3837">Nationwide Residential and Commercial</title>
  <metadata
     id="metadata2991">
    <rdf:RDF>
      <cc:Work
         rdf:about="">
        <dc:format>image/svg+xml</dc:format>
        <dc:type
           rdf:resource="http://purl.org/dc/dcmitype/StillImage" />
        <dc:title>Nationwide Residential and Commercial</dc:title>
        <dc:creator>
          <cc:Agent>
            <dc:title>Anthony Owide</dc:title>
          </cc:Agent>
        </dc:creator>
      </cc:Work>
    </rdf:RDF>
  </metadata>
  <defs
     id="defs2989">
    <linearGradient
       id="linearGradient3814">
      <stop
         id="stop3816"
         style="stop-color:#000000;stop-opacity:1"
         offset="0" />
      <stop
         id="stop3818"
         style="stop-color:#000000;stop-opacity:0"
         offset="1" />
    </linearGradient>
    <clipPath
       id="clipPath3042">
      <path
         d="m 89.366264,45.181465 a 45.360149,44.818535 0 1 1 -90.7202984,0 45.360149,44.818535 0 1 1 90.7202984,0 z"
         transform="translate(0.40621028,-0.40621028)"
         id="path3044"
         style="fill:#ff0000;fill-rule:evenodd;stroke:#000000;stroke-width:1px;stroke-linecap:butt;stroke-linejoin:miter;stroke-opacity:1" />
    </clipPath>
    <filter
       color-interpolation-filters="sRGB"
       id="filter3760">
      <feColorMatrix
         result="result7"
         values="1 0 0 0 0 0 1 0 0 0 0 0 1 0 0 0 0 0 1 0 "
         id="feColorMatrix3762" />
      <feGaussianBlur
         stdDeviation="5"
         result="result6"
         id="feGaussianBlur3764" />
      <feComposite
         in2="result7"
         operator="atop"
         in="result6"
         result="result91"
         id="feComposite3766" />
      <feComposite
         in2="result91"
         operator="in"
         id="feComposite3768" />
    </filter>
    <filter
       color-interpolation-filters="sRGB"
       id="filter3810">
      <feGaussianBlur
         id="feGaussianBlur3812"
         stdDeviation="0.84429191" />
    </filter>
  </defs>
  <g
     transform="translate(503.63053,1185.7635)"
     id="layer4">
    <path
       d="m 90.855701,47.754131 a 44.683132,46.037167 0 1 1 -89.3662639,0 44.683132,46.037167 0 1 1 89.3662639,0 z"
       transform="matrix(0.4422262,0,0,0.42952475,85.188589,49.437105)"
       id="path3831"
       style="fill:#ffffff;fill-opacity:1;stroke:#000000;stroke-width:0;stroke-linecap:round;stroke-linejoin:round;stroke-miterlimit:4;stroke-opacity:1;stroke-dasharray:none;stroke-dashoffset:0" />
  </g>
  <g
     transform="translate(503.63053,1185.7635)"
     id="layer2">
    <path
       d="m 4.468313,24.193935 c 0,0 12.784783,-10.968785 29.924158,1.354034 10.620553,7.635936 8.064795,23.874978 9.207432,26.132862 1.613797,3.18891 6.648108,3.773444 8.530416,-10e-7 0.725294,-1.45399 0.212069,-25.337804 0.677017,-27.216088 2.081159,-8.407408 12.795613,-7.948116 15.706798,-1.052176 1.266068,2.999029 -0.633181,26.010697 0.40621,27.862054 2.535014,4.515352 7.978318,4.321258 9.207433,-0.135403 0.546205,-1.980491 0.191854,-25.038577 0.270807,-26.674475 0.09231,-1.912668 6.093154,-10.561467 14.352763,-0.677017 1.789904,2.142016 3.926699,16.519218 2.708068,25.320441 -1.97325,14.25125 -11.445048,23.29752 -19.768899,22.341565 C 59.291404,69.566371 60.875424,61.299729 60.254525,62.513104 53.727439,75.268485 34.617223,72.943657 29.24714,60.34665 26.29904,53.431073 26.132862,43.827432 26.132862,43.827432 26.169287,39.480565 15.069003,31.351734 9.4782398,42.879608 8.1053462,45.710446 10.586855,63.868727 9.207433,66.033593 c -4.33044,6.796193 -15.4359906,1.895649 -15.4359906,1.895649 0,0 0.4062104,-32.226016 1.895648,-34.257067 1.4894377,-2.031052 8.8012226,-9.47824 8.8012226,-9.47824 z"
       transform="matrix(20.234476,-0.3019343,0.34368964,23.032759,-641.99105,-1513.2972)"
       clip-path="url(#clipPath3042)"
       id="nw"
       style="fill:#f8f8f8;fill-opacity:1;stroke:#000000;stroke-width:0;stroke-linecap:round;stroke-linejoin:round;stroke-miterlimit:4;stroke-opacity:1;stroke-dasharray:none;stroke-dashoffset:0;filter:url(#filter3810)" />
  </g>
  <g
     transform="translate(503.63053,1185.7635)"
     id="layer3" />
</svg>
