<!-- Created with Inkscape (http://www.inkscape.org/) -->
<svg xmlns:rdf="http://www.w3.org/1999/02/22-rdf-syntax-ns#" xmlns="http://www.w3.org/2000/svg" xmlns:osb="http://www.openswatchbook.org/uri/2009/osb" height="1009.8" width="1506.6" version="1.1" xmlns:cc="http://creativecommons.org/ns#" xmlns:dc="http://purl.org/dc/elements/1.1/">
 <title>Nationwide Residential and Commercial</title>
 <metadata>
  <rdf:RDF>
   <cc:Work rdf:about="">
    <dc:format>image/svg+xml</dc:format>
    <dc:type rdf:resource="http://purl.org/dc/dcmitype/StillImage"/>
    <dc:title>Nationwide Residential and Commercial</dc:title>
    <dc:creator>
     <cc:Agent>
      <dc:title>Anthony Owide</dc:title>
     </cc:Agent>
    </dc:creator>
   </cc:Work>
  </rdf:RDF>
 </metadata>
 <defs>
  <clipPath id="clipPath3042" clipPathUnits="userSpaceOnUse">
   <path stroke-linejoin="miter" d="m89.366,45.181a45.36,44.819,0,1,1,-90.72,0,45.36,44.819,0,1,1,90.72,0z" fill-rule="evenodd" transform="translate(0.40621028,-0.40621028)" stroke="#000" stroke-linecap="butt" stroke-width="1px" fill="#F00"/>
  </clipPath>
 </defs>
 <g transform="translate(503.63053,897.7658)">
  <path d="m90.856,47.754c0,25.426-20.005,46.037-44.683,46.037s-44.683-20.612-44.683-46.037c0-25.426,20.005-46.037,44.683-46.037s44.683,20.612,44.683,46.037z" transform="matrix(0.4422262,0,0,0.42952475,85.188589,49.437105)" stroke-miterlimit="4" stroke-width="0" fill="#FFF"/>
 </g>
 <g transform="translate(503.63053,897.7658)">
  <path d="m4.4683,24.194s12.785-10.969,29.924,1.354c10.621,7.6359,8.0648,23.875,9.2074,26.133,1.6138,3.1889,6.6481,3.7734,8.5304-0.000001,0.72529-1.454,0.21207-25.338,0.67702-27.216,2.0812-8.4074,12.796-7.9481,15.707-1.0522,1.2661,2.999-0.63318,26.011,0.40621,27.862,2.535,4.5154,7.9783,4.3213,9.2074-0.1354,0.5462-1.9805,0.19185-25.039,0.27081-26.674,0.09231-1.9127,6.0932-10.561,14.353-0.67702,1.7899,2.142,3.9267,16.519,2.7081,25.32-1.9732,14.251-11.445,23.298-19.769,22.342-16.398-1.885-14.814-10.151-15.434-8.938-6.528,12.755-25.638,10.431-31.008-2.166-2.948-6.916-3.114-16.52-3.114-16.52,0.036-4.346-11.064-12.475-16.655-0.947-1.3729,2.83,1.1088,20.989-0.2708,23.154-4.3304,6.7962-15.436,1.8956-15.436,1.8956s0.40621-32.226,1.8956-34.257c1.4894-2.0311,8.8012-9.4782,8.8012-9.4782z" clip-path="url(#clipPath3042)" transform="matrix(16.607321,0,0,18.903994,-487.88971,-1240.9506)" stroke-miterlimit="4" stroke-width="0" fill="#f8f8f8"/>
 </g>
</svg>
