<?xml version="1.0" encoding="UTF-8" standalone="no"?>
<!-- Created with Inkscape (http://www.inkscape.org/) -->

<svg
   xmlns:dc="http://purl.org/dc/elements/1.1/"
   xmlns:cc="http://creativecommons.org/ns#"
   xmlns:rdf="http://www.w3.org/1999/02/22-rdf-syntax-ns#"
   xmlns:svg="http://www.w3.org/2000/svg"
   xmlns="http://www.w3.org/2000/svg"
   version="1.1"
   width="325"
   height="109"
   id="svg2">
  <defs
     id="defs4" />
  <metadata
     id="metadata7">
    <rdf:RDF>
      <cc:Work
         rdf:about="">
        <dc:format>image/svg+xml</dc:format>
        <dc:type
           rdf:resource="http://purl.org/dc/dcmitype/StillImage" />
        <dc:title></dc:title>
      </cc:Work>
    </rdf:RDF>
  </metadata>
  <g
     id="nationwide"
     style="display:inline">
    <path
       d="m 18.67596,60.510379 0,-33.62017 c 0,0 16.630787,-0.0403 17.952515,0 4.78662,0.1458 7.481578,3.00635 7.67062,6.36498 0.07002,1.24394 0,27.41839 0,27.41839"
       id="n1"
       style="fill:none;stroke:#ffffff;stroke-width:3.57472777;stroke-linecap:butt;stroke-linejoin:miter;stroke-miterlimit:4;stroke-opacity:1;stroke-dasharray:none" />
    <path
       d="m 49.172209,26.776389 18.694812,0 c 2.197262,0.14642 7.597696,0.10878 8.648535,5.85305 0.222319,1.21527 0,26.12032 0,26.12032 l -19.655761,0 c -5.741336,-1.52527 -5.887729,-6.07074 -6.027766,-9.60948 -0.133747,-3.3798 1.186967,-7.86315 6.464561,-8.56118 0.866047,-0.11454 19.306325,0 19.306325,0"
       id="a1"
       style="fill:none;stroke:#ffffff;stroke-width:3.57472777;stroke-linecap:butt;stroke-linejoin:miter;stroke-miterlimit:4;stroke-opacity:1;stroke-dasharray:none" />
    <path
       d="m 81.582374,27.038469 22.276526,0 m -13.365912,-14.32687 0,40.79662 c 0.50103,2.43319 3.663137,4.96692 6.202481,5.15418 0.932135,0.0687 7.163431,0 7.163431,0"
       id="t1"
       style="fill:none;stroke:#ffffff;stroke-width:3.57472777;stroke-linecap:butt;stroke-linejoin:miter;stroke-miterlimit:4;stroke-opacity:1;stroke-dasharray:none" />
    <path
       d="m 108.92572,24.931749 c 0,9.75845 0,27.01225 0,28.3144 0.69887,3.10597 2.25963,4.63718 5.63465,5.95384 m -5.63465,-46.48839 0,5.41626"
       id="i1"
       style="fill:none;stroke:#ffffff;stroke-width:3.57472777;stroke-linecap:butt;stroke-linejoin:miter;stroke-miterlimit:4;stroke-opacity:1;stroke-dasharray:none" />
    <rect
       width="25.830809"
       height="31.771215"
       ry="6.665216"
       x="120.38346"
       y="26.87746"
       id="o1"
       style="fill:none;stroke:#ffffff;stroke-width:3.60216308;stroke-linecap:round;stroke-linejoin:round;stroke-miterlimit:4;stroke-opacity:1;stroke-dasharray:none;stroke-dashoffset:0" />
    <path
       d="m 152.86726,60.322219 0,-33.45847 18.60746,0 c 5.41736,0.21669 6.76792,4.89375 6.814,6.3772 0.0462,1.48695 0,27.16863 0,27.16863"
       id="n2"
       style="fill:none;stroke:#ffffff;stroke-width:3.57472777;stroke-linecap:butt;stroke-linejoin:miter;stroke-miterlimit:4;stroke-opacity:1;stroke-dasharray:none" />
    <path
       d="m 208.3281,25.291289 0,32.49752 m -19.81839,-32.41016 c 0,0 -0.223,26.08209 0,26.99391 0.59556,2.43511 4.10587,4.4553 5.3289,4.63002 1.66349,0.23764 33.98262,0 33.98262,0 l 0,-31.53657"
       id="wbold1"
       style="fill:none;stroke:#ffffff;stroke-width:5.32146978;stroke-linecap:butt;stroke-linejoin:miter;stroke-miterlimit:4;stroke-opacity:1;stroke-dasharray:none" />
    <path
       d="m 236.20769,25.543269 c 0,9.75844 0,24.77585 0,26.078 0.78622,3.80485 2.60906,4.98662 5.98409,6.30328 m -5.98409,-44.34809 0,6.90135"
       id="ibold1"
       style="fill:none;stroke:#ffffff;stroke-width:5.32146978;stroke-linecap:butt;stroke-linejoin:miter;stroke-miterlimit:4;stroke-opacity:1;stroke-dasharray:none" />
    <path
       d="m 272.81108,13.497829 0,37.56435 c 0,2.64711 -2.88285,5.71198 -5.67833,5.85304 -0.74545,0.0376 -12.05553,0 -12.05553,0 -1.98285,-0.14754 -5.46796,-2.18442 -5.94041,-4.80474 -0.19174,-1.06342 0,-18.0833 0,-18.0833 0.0297,-2.09661 2.65195,-5.59097 4.97946,-5.85305 0.8681,-0.0977 18.78217,0 18.78217,0"
       id="dbold1"
       style="fill:none;stroke:#ffffff;stroke-width:5.32146978;stroke-linecap:butt;stroke-linejoin:miter;stroke-miterlimit:4;stroke-opacity:1;stroke-dasharray:none" />
    <path
       d="m 281.19754,42.151559 23.76163,0 0,-8.03702 c 0.0141,-2.57581 -2.7225,-5.46048 -5.59097,-5.76569 -2.17346,-0.23125 -12.1429,0 -12.1429,0 -2.53338,0.26212 -5.93552,2.5108 -6.11512,5.76569 -0.0529,0.95949 -0.27334,16.65436 0,17.73386 0.36862,1.45579 1.39098,3.31288 4.36794,4.80475 1.43587,0.71956 14.39159,0.28275 15.46254,0.17472 2.3085,-0.23287 4.62766,-3.18323 5.67833,-4.54267"
       id="ebold1"
       style="fill:none;stroke:#ffffff;stroke-width:5.32146978;stroke-linecap:butt;stroke-linejoin:miter;stroke-miterlimit:4;stroke-opacity:1;stroke-dasharray:none" />
    <path
       d="m 24.620841,86.242309 c 3.348005,0.0205 4.880277,0.53277 4.920319,2.06121 0.02064,0.78787 0.09974,9.00951 0.09974,9.00951 m -11.27019,0 0,-19.81426 7.579952,0 c 2.088461,0.0332 3.665666,1.06573 3.623748,2.62639 -0.01398,0.52036 0.05946,3.56178 0.03325,4.15567 -0.227542,1.09786 -1.636048,1.99068 -2.792614,1.96148 -0.656732,-0.0166 -8.470799,0.0326 -8.477576,0.0332"
       id="R1"
       style="fill:none;stroke:#ffffff;stroke-width:1.70611989;stroke-linecap:butt;stroke-linejoin:miter;stroke-miterlimit:4;stroke-opacity:1;stroke-dasharray:none" />
    <path
       d="m 32.765131,89.374129 11.343423,0 0,-3.83674 c 0.0067,-1.22965 -1.299678,-2.60675 -2.66904,-2.75245 -1.037571,-0.1104 -5.796823,0 -5.796823,0 -1.209396,0.12513 -2.833524,1.19862 -2.919263,2.75245 -0.02527,0.45804 -0.13049,7.95053 0,8.46586 0.175975,0.69497 0.66403,1.58152 2.085186,2.29371 0.685461,0.34351 6.870313,0.13498 7.381568,0.0834 1.102042,-0.11117 2.209175,-1.51962 2.710744,-2.1686"
       id="e2"
       style="fill:none;stroke:#ffffff;stroke-width:1.70611989;stroke-linecap:butt;stroke-linejoin:miter;stroke-miterlimit:4;stroke-opacity:1;stroke-dasharray:none" />
    <path
       d="m 57.999222,84.513549 c 0,0 -1.296571,-1.59645 -2.160951,-1.62902 -0.495416,-0.0187 -4.802147,0.058 -5.917681,0 -1.159015,0.002 -2.544605,1.13549 -2.692878,1.89499 -0.09979,0.51116 -0.07232,1.88897 -0.03325,2.46016 0.175469,0.97239 1.991283,2.24292 2.726123,2.29392 0.732652,0.0509 4.716085,-0.0884 5.153036,0 1.358403,0.27474 2.824079,1.48488 2.859105,2.22745 0.04764,1.01006 0.01658,1.75312 0,2.42691 -0.03557,1.44595 -1.462798,2.32718 -2.659632,2.36043 -1.032352,0.0287 -5.018332,0.0343 -5.751454,0 -1.215999,-0.0569 -1.994724,-1.13035 -2.593141,-1.79526"
       id="s1"
       style="fill:none;stroke:#ffffff;stroke-width:1.70611989;stroke-linecap:butt;stroke-linejoin:miter;stroke-miterlimit:4;stroke-opacity:1;stroke-dasharray:none" />
    <path
       d="m 60.981446,81.975909 c 0,4.28909 0,11.87256 0,12.44489 0.307171,1.36516 0.993162,2.03816 2.476572,2.61687 m -2.476572,-20.43282 0,2.38057"
       id="i2"
       style="fill:none;stroke:#ffffff;stroke-width:1.57125533;stroke-linecap:butt;stroke-linejoin:miter;stroke-miterlimit:4;stroke-opacity:1;stroke-dasharray:none" />
    <path
       d="m 76.90068,76.066939 0,17.53598 c 0,1.23574 -1.345785,2.66649 -2.650789,2.73235 -0.347991,0.0176 -5.627822,0 -5.627822,0 -0.925642,-0.0689 -2.552579,-1.01974 -2.773132,-2.24298 -0.08951,-0.49643 0,-8.44174 0,-8.44174 0.01388,-0.97875 1.237996,-2.61 2.324535,-2.73234 0.405254,-0.0456 8.767988,0 8.767988,0"
       id="d2"
       style="fill:none;stroke:#ffffff;stroke-width:1.66877234;stroke-linecap:butt;stroke-linejoin:miter;stroke-miterlimit:4;stroke-opacity:1;stroke-dasharray:none" />
    <path
       d="m 79.707634,89.374129 11.343421,0 0,-3.83674 c 0.0067,-1.22965 -1.299675,-2.60675 -2.669038,-2.75245 -1.037571,-0.1104 -5.796823,0 -5.796823,0 -1.209396,0.12513 -2.833524,1.19862 -2.919263,2.75245 -0.02527,0.45804 -0.13049,7.95053 0,8.46586 0.175975,0.69497 0.664029,1.58152 2.085186,2.29371 0.68546,0.34351 6.870313,0.13498 7.381568,0.0834 1.102041,-0.11117 2.209175,-1.51962 2.710745,-2.1686"
       id="e3"
       style="fill:none;stroke:#ffffff;stroke-width:1.70651817;stroke-linecap:butt;stroke-linejoin:miter;stroke-miterlimit:4;stroke-opacity:1;stroke-dasharray:none" />
    <path
       d="m 93.923406,97.259839 0,-14.48119 c 0,0 7.163364,-0.0173 7.732674,0 2.06174,0.0628 3.22254,1.29492 3.30396,2.74158 0.0302,0.5358 0,11.8099 0,11.8099"
       id="n3"
       style="fill:none;stroke:#ffffff;stroke-width:1.53974009;stroke-linecap:butt;stroke-linejoin:miter;stroke-miterlimit:4;stroke-opacity:1;stroke-dasharray:none" />
    <path
       d="m 107.04236,82.861209 9.68761,0 m -5.81257,-6.23046 0,17.74161 c 0.21789,1.05815 1.59303,2.16001 2.69734,2.24145 0.40536,0.0299 3.13051,0.006 3.11523,0"
       id="t2"
       style="fill:none;stroke:#ffffff;stroke-width:1.55457592;stroke-linecap:butt;stroke-linejoin:miter;stroke-miterlimit:4;stroke-opacity:1;stroke-dasharray:none" />
    <path
       d="m 118.82844,81.975909 c 0,4.28909 0,11.87256 0,12.44489 0.30717,1.36516 0.99316,2.03816 2.47657,2.61687 m -2.47657,-20.43282 0,2.38057"
       id="i3"
       style="fill:none;stroke:#ffffff;stroke-width:1.57125533;stroke-linecap:butt;stroke-linejoin:miter;stroke-miterlimit:4;stroke-opacity:1;stroke-dasharray:none" />
    <path
       d="m 122.88982,82.682959 8.12615,0 c 0.95509,0.0636 3.30252,0.0473 3.75929,2.54417 0.0966,0.52825 0,11.35383 0,11.35383 l -8.54385,0 c -2.49561,-0.66299 -2.55924,-2.63879 -2.62011,-4.177 -0.0581,-1.4691 0.51594,-3.4179 2.80998,-3.72131 0.37644,-0.0498 8.39196,0 8.39196,0"
       id="a2"
       style="fill:none;stroke:#ffffff;stroke-width:1.55384207;stroke-linecap:butt;stroke-linejoin:miter;stroke-miterlimit:4;stroke-opacity:1;stroke-dasharray:none" />
    <path
       d="m 137.72891,76.710109 c 0,4.28908 0,17.13836 0,17.71069 0.30717,1.36516 0.99316,2.03816 2.47657,2.61687"
       id="l1"
       style="fill:none;stroke:#ffffff;stroke-width:1.70611989;stroke-linecap:butt;stroke-linejoin:miter;stroke-miterlimit:4;stroke-opacity:1;stroke-dasharray:none" />
    <path
       d="m 166.01352,91.229119 0,3.52401 c 0,0 -1.3963,2.1942 -1.86174,2.26069 -0.46544,0.0665 -13.0322,0 -13.0322,0 0,0 -2.59314,-0.86438 -2.59314,-2.06121 0,-0.8089 -0.0273,-5.28872 0,-6.18365 0.0224,-0.73347 1.52929,-2.1277 2.32718,-2.19419 0.79789,-0.0665 5.82482,0.0207 6.5161,0 1.11724,-0.0334 2.46016,-1.92824 2.52665,-2.72613 0.0336,-0.40305 0,-3.25804 0,-3.25804 -0.0726,-0.97907 -1.3131,-2.44382 -2.32718,-2.59314 l -6.5161,-0.13299 c -0.9247,0.009 -2.4124,1.20234 -2.59314,2.26069 -0.0976,0.57147 -0.10987,1.83788 0.0665,2.06121 0.62786,0.79508 14.02956,14.76096 14.02956,14.76096"
       id="amp1"
       style="fill:none;stroke:#ffffff;stroke-width:1.70611989;stroke-linecap:butt;stroke-linejoin:miter;stroke-miterlimit:4;stroke-opacity:1;stroke-dasharray:none" />
    <path
       d="m 186.62057,94.578749 c 0,0 -1.22241,1.69258 -2.16273,1.88065 -0.652,0.13039 -5.57736,-0.049 -6.34718,0 -0.68716,0.0437 -2.29596,-0.81169 -2.25677,-1.83363 0.0394,-1.02692 0,-14.29289 0,-14.29289 0.0815,-1.47158 1.08442,-2.7034 2.58588,-2.82097 0.93589,-0.0733 5.26581,0 5.26581,0 1.47701,0.18807 2.39438,1.1754 3.10306,1.92766"
       id="C1"
       style="fill:none;stroke:#ffffff;stroke-width:1.70611989;stroke-linecap:butt;stroke-linejoin:miter;stroke-miterlimit:4;stroke-opacity:1;stroke-dasharray:none" />
    <rect
       width="11.317642"
       height="13.920402"
       ry="2.9203317"
       x="189.70949"
       y="82.683716"
       id="o2"
       style="fill:none;stroke:#ffffff;stroke-width:1.57835209;stroke-linecap:round;stroke-linejoin:round;stroke-miterlimit:4;stroke-opacity:1;stroke-dasharray:none;stroke-dashoffset:0" />
    <path
       d="m 213.18466,97.258669 0,-14.622 m -9.16814,14.57499 0,-14.52798 15.28024,0 c 1.82842,0.0703 3.12162,1.31723 3.19709,2.72694 0.078,1.45617 0,11.9891 0,11.9891"
       id="m1"
       style="fill:none;stroke:#ffffff;stroke-width:1.70611989;stroke-linecap:butt;stroke-linejoin:miter;stroke-miterlimit:4;stroke-opacity:1;stroke-dasharray:none" />
    <path
       d="m 234.38892,97.258669 0,-14.622 m -9.16814,14.57499 0,-14.52798 15.28023,0 c 1.82843,0.0703 3.12163,1.31723 3.1971,2.72694 0.078,1.45617 0,11.9891 0,11.9891"
       id="m2"
       style="fill:none;stroke:#ffffff;stroke-width:1.70611989;stroke-linecap:butt;stroke-linejoin:miter;stroke-miterlimit:4;stroke-opacity:1;stroke-dasharray:none" />
    <path
       d="m 246.46655,89.374129 11.34342,0 0,-3.83674 c 0.007,-1.22965 -1.29968,-2.60675 -2.66904,-2.75245 -1.03757,-0.1104 -5.79682,0 -5.79682,0 -1.20939,0.12513 -2.83352,1.19862 -2.91926,2.75245 -0.0253,0.45804 -0.13049,7.95053 0,8.46586 0.17597,0.69497 0.66403,1.58152 2.08518,2.29371 0.68547,0.34351 6.87032,0.13498 7.38157,0.0834 1.10204,-0.11117 2.20918,-1.51962 2.71075,-2.1686"
       id="e4"
       style="fill:none;stroke:#ffffff;stroke-width:1.70611989;stroke-linecap:butt;stroke-linejoin:miter;stroke-miterlimit:4;stroke-opacity:1;stroke-dasharray:none" />
    <path
       d="m 260.89589,97.279779 0,-14.56148 7.81267,0 c 1.71056,-0.0131 3.35128,1.17323 3.35778,2.42691 0.003,0.57353 0,3.2248 0,3.2248"
       id="r1"
       style="fill:none;stroke:#ffffff;stroke-width:1.70611989;stroke-linecap:butt;stroke-linejoin:miter;stroke-miterlimit:4;stroke-opacity:1;stroke-dasharray:none" />
    <path
       d="m 286.78717,96.459399 c 0,0 -8.70242,-0.049 -9.47224,0 -0.68716,0.0437 -2.29596,-0.81169 -2.25678,-1.83363 0.0394,-1.02692 0,-8.88634 0,-8.88634 0.0815,-1.47157 1.08442,-2.7034 2.58589,-2.82096 0.93588,-0.0733 5.2658,0 5.2658,0 1.83561,0.0275 3.04579,0.97151 3.09467,1.91584 0.0465,0.89901 0.0749,3.40285 0.0749,3.40285"
       id="c1"
       style="fill:none;stroke:#ffffff;stroke-width:1.70611989;stroke-linecap:butt;stroke-linejoin:miter;stroke-miterlimit:4;stroke-opacity:1;stroke-dasharray:none" />
    <path
       d="m 288.9119,81.842929 c 0,4.28909 0,11.87256 0,12.44489 0.30717,1.36516 0.99316,2.03816 2.47657,2.61687 m -2.47657,-20.43282 0,2.38057"
       id="i4"
       style="fill:none;stroke:#ffffff;stroke-width:1.57125533;stroke-linecap:butt;stroke-linejoin:miter;stroke-miterlimit:4;stroke-opacity:1;stroke-dasharray:none" />
    <path
       d="m 293.23924,82.682959 8.12615,0 c 0.9551,0.0636 3.30253,0.0473 3.75929,2.54417 0.0966,0.52825 0,11.35383 0,11.35383 l -8.54385,0 c -2.49561,-0.66299 -2.55924,-2.63879 -2.62011,-4.177 -0.0581,-1.4691 0.51594,-3.4179 2.80998,-3.72131 0.37644,-0.0498 8.39196,0 8.39196,0"
       id="a3"
       style="fill:none;stroke:#ffffff;stroke-width:1.55384207;stroke-linecap:butt;stroke-linejoin:miter;stroke-miterlimit:4;stroke-opacity:1;stroke-dasharray:none" />
    <path
       d="m 308.0212,76.710109 c 0,4.28908 0,17.13836 0,17.71069 0.30717,1.36516 0.99316,2.03816 2.47657,2.61687"
       id="l2"
       style="fill:none;stroke:#ffffff;stroke-width:1.57125533;stroke-linecap:butt;stroke-linejoin:miter;stroke-miterlimit:4;stroke-opacity:1;stroke-dasharray:none" />
  </g>
</svg>
